# xmcd CD database file
#
# Track frame offsets:
#	150
#	23873
#	37510
#	56382
#	86544
#	104961
#	125739
#	148353
#	177378
#	204366
#	223681
#	245235
#
# Disc length: 3607 seconds
#
# Revision: 0
# Processed by: cddbd v1.4PL0 Copyright (c) Steve Scherf et al.
# Submitted via: CDex 1.51
#
DISCID=b50e150c
DTITLE=Various Artist - 2003 PHONO Compilation Vol. 04 (Ales2 Music)
DYEAR=2003
DGENRE=Jazz
TTITLE0=Ronald Baker - Lou Ann
TTITLE1=Alain Mayeras Trio - Fly to the Moon
TTITLE2=Frederic Couderc Quartet - The Jody Grind
TTITLE3=Nico Morelli - Il Canto di Sadone
TTITLE4=Alfio Origlio - How Deep is You Love
TTITLE5=Michel Delage Jazz Company - Solitude
TTITLE6=Laurent Maur - Natural Boy
TTITLE7=Ronald Baker - Doodle Bug
TTITLE8=Alfio Origlio - Passeggiata
TTITLE9=Norbert Lucarain Trio - Le Bal des Colombes
TTITLE10=Romeyn Adams Nesbitt - Summertime
TTITLE11=La Cricca D'umberto - Mia
EXTD=YEAR: 2003
EXTT0=
EXTT1=
EXTT2=
EXTT3=
EXTT4=
EXTT5=
EXTT6=
EXTT7=
EXTT8=
EXTT9=
EXTT10=
EXTT11=
PLAYORDER=
